<svg width="18" height="30" viewBox="0 0 18 30" fill="none" xmlns="http://www.w3.org/2000/svg">
<path d="M5.64039 29.7183H11.701C11.7098 29.7238 11.7196 29.7183 11.7305 29.7183H11.701C11.647 29.6847 11.6301 29.241 11.6301 24.6315V17.9455H16.0466L16.0854 17.7656C16.1009 17.6718 16.2791 16.5379 16.4728 15.2476C16.6665 13.9573 16.8447 12.7843 16.8679 12.6435L16.9144 12.3933H14.2723H11.6301V10.4931C11.6301 9.4452 11.6688 8.38169 11.7153 8.13145C11.8781 7.21652 12.3972 6.51273 13.141 6.16866C13.9537 5.86931 15.0753 5.78879 15.9149 5.82458H17.1314V3.4786C17.1314 2.18831 17.1159 1.13262 17.1081 1.13262V0.931595H11.7153C10.2257 0.931595 8.7237 1.82154 8.15888 2.26651C6.90367 3.22054 6.10559 4.80798 5.82666 6.86462C5.78017 7.20088 5.74142 8.58501 5.74142 9.93785V12.3933H3.33946H0.9375V15.1694V17.9455H3.33946H5.74142V24.6315C5.79566 29.7183 5.64039 29.7183 5.64039 29.7183Z" fill="white"/>
</svg>
