<svg width="28" height="28" viewBox="0 0 28 28" fill="none" xmlns="http://www.w3.org/2000/svg">
<path d="M9.67637 1.02817C6.30242 1.09559 5.75134 1.1293 4.99782 1.33157C2.60232 1.98332 1.24149 3.33177 0.600444 5.72527C0.398007 6.47816 0.364268 7.04001 0.296789 10.546C0.26305 12.7147 0.26305 16.2881 0.296789 18.4681C0.364268 21.9629 0.398007 22.5247 0.600444 23.2776C1.24149 25.6711 2.60232 27.0308 4.99782 27.6713C5.75134 27.8736 6.31366 27.9073 9.82257 27.9747C11.9931 28.0084 15.5695 28.0084 17.7514 27.9747C21.2715 27.9073 21.8113 27.8736 22.5873 27.6601C24.9154 27.042 26.3324 25.6374 26.9622 23.3001C27.1647 22.5135 27.1984 21.9966 27.2659 18.4569C27.2996 16.2881 27.2996 12.7147 27.2659 10.5347C27.1984 7.02877 27.1647 6.47816 26.9622 5.72527C26.3212 3.33177 24.9491 1.96084 22.5649 1.33157C21.6876 1.10683 21.4627 1.09559 15.1309 0.983219C14.2312 0.971982 11.7795 0.994454 9.67637 1.02817ZM23.3071 3.83744C23.7345 3.99476 24.2406 4.47795 24.4205 4.9162C24.9716 6.18599 23.9932 7.64681 22.6098 7.64681C21.5527 7.64681 20.6417 6.74785 20.6417 5.69156C20.6417 4.33187 22.0363 3.35425 23.3071 3.83744ZM16.5142 6.48939C17.8751 6.96135 18.6286 7.44455 19.697 8.4896C20.7317 9.51217 21.3727 10.5235 21.8451 11.8607C22.1375 12.6923 22.16 12.8833 22.16 14.5014C22.16 16.1196 22.1375 16.3106 21.8451 17.1422C21.3952 18.4344 20.7204 19.4907 19.7532 20.4683C18.7748 21.4347 17.7176 22.109 16.4243 22.5584C15.592 22.8506 15.4008 22.8731 13.7813 22.8731C12.1618 22.8731 11.9707 22.8506 11.1384 22.5584C9.80008 22.0865 8.78789 21.446 7.76446 20.4122C6.71854 19.3446 6.24619 18.5917 5.75134 17.2321C5.41394 16.2769 5.4027 16.1758 5.4027 14.5014C5.41394 12.917 5.43644 12.681 5.7176 11.8607C6.30242 10.119 7.55078 8.47836 9.05781 7.47826C10.6998 6.38826 11.8807 6.06238 14.0063 6.10733C15.3558 6.14104 15.6258 6.18599 16.5142 6.48939Z" fill="white"/>
<path d="M12.6138 10.299C9.96677 11.0035 8.35642 13.6606 9.02069 16.217C9.5038 18.0589 10.8122 19.3673 12.6641 19.8504C16.1264 20.7562 19.488 17.3946 18.5822 13.9323C17.8776 11.245 15.1904 9.6045 12.6138 10.299Z" fill="white"/>
</svg>
