<svg width="24" height="29" viewBox="0 0 24 29" fill="none" xmlns="http://www.w3.org/2000/svg">
<path d="M18.3109 1.29862C18.6558 3.27821 20.2684 4.82326 22.3272 5.15158L23.0879 5.27711V7.50778V9.7481L22.5605 9.70947C21.242 9.62256 19.954 9.29424 18.9093 8.80176C18.5848 8.64725 18.3008 8.52171 18.2704 8.52171C18.24 8.52171 18.2197 11.3028 18.2197 14.7019C18.2197 19.9744 18.1994 20.998 18.0574 21.6353C17.5807 23.837 16.2115 25.778 14.2744 27.014C10.8362 29.1867 6.15054 28.7618 3.21947 26.0097C1.33303 24.2329 0.46081 22.0795 0.6028 19.5012C0.673794 18.1686 0.846211 17.5409 1.48516 16.2952C2.32696 14.644 3.6353 13.379 5.35946 12.5195C6.39395 12.0174 7.91527 11.6118 8.79764 11.6118H9.39602V13.8328V16.0442L9.02076 16.1021C7.00248 16.3918 5.64344 17.6182 5.35946 19.3853C5.07548 21.1042 5.93756 22.7072 7.55015 23.4604C8.29053 23.8177 8.36153 23.8273 9.38588 23.8273C10.3798 23.8273 10.5117 23.808 11.1202 23.528C11.962 23.1514 12.6922 22.4561 13.0878 21.6546L13.4022 21.0269L13.4529 10.8393C13.4833 5.23849 13.5137 0.64197 13.534 0.622656C13.5442 0.612999 14.5989 0.603344 15.8768 0.603344H18.1892L18.3109 1.29862Z" fill="white"/>
</svg>
