<svg width="25" height="22" viewBox="0 0 25 22" fill="none" xmlns="http://www.w3.org/2000/svg">
<path d="M12.47 3.44098L11.8431 4.0443C12.0072 4.2147 12.2335 4.31098 12.47 4.31098C12.7065 4.31098 12.9328 4.2147 13.0969 4.0443L12.47 3.44098ZM6.67071 16.1085C6.2997 15.8032 5.75143 15.8564 5.4461 16.2274C5.14076 16.5984 5.19399 17.1467 5.565 17.452L6.67071 16.1085ZM1.26671 12.6176C1.49726 13.0391 2.02591 13.194 2.44746 12.9634C2.86903 12.7328 3.02385 12.2042 2.79329 11.7826L1.26671 12.6176ZM1.74 7.65928C1.74 5.16428 3.14983 3.07197 5.07426 2.19231C6.94384 1.33773 9.45593 1.56404 11.8431 4.0443L13.0969 2.83766C10.2643 -0.105268 6.97634 -0.590299 4.35088 0.609802C1.78026 1.78484 0 4.51328 0 7.65928H1.74ZM8.40701 19.6801C9.00119 20.1485 9.63907 20.648 10.2855 21.0257C10.9317 21.4033 11.6691 21.7102 12.47 21.7102V19.9702C12.1109 19.9702 11.6883 19.8302 11.1634 19.5234C10.6387 19.2168 10.0944 18.7947 9.48422 18.3137L8.40701 19.6801ZM16.533 19.6801C18.1879 18.3755 20.3032 16.8807 21.9626 15.0122C23.6518 13.1101 24.94 10.7513 24.94 7.65928H23.2C23.2 10.2083 22.1569 12.173 20.6616 13.8568C19.1364 15.5742 17.2139 16.9277 15.4558 18.3137L16.533 19.6801ZM24.94 7.65928C24.94 4.51328 23.1597 1.78484 20.5891 0.609802C17.9636 -0.590299 14.6757 -0.105268 11.8431 2.83766L13.0969 4.0443C15.484 1.56404 17.9961 1.33773 19.8657 2.19231C21.7901 3.07197 23.2 5.16428 23.2 7.65928H24.94ZM15.4558 18.3137C14.8456 18.7947 14.3013 19.2168 13.7766 19.5234C13.2517 19.8302 12.8291 19.9702 12.47 19.9702V21.7102C13.2709 21.7102 14.0083 21.4033 14.6545 21.0257C15.301 20.648 15.9387 20.1485 16.533 19.6801L15.4558 18.3137ZM9.48422 18.3137C8.56096 17.5859 7.6227 16.892 6.67071 16.1085L5.565 17.452C6.52811 18.2446 7.54548 19.001 8.40701 19.6801L9.48422 18.3137ZM2.79329 11.7826C2.14229 10.5923 1.74 9.24408 1.74 7.65928H0C0 9.55878 0.487142 11.1922 1.26671 12.6176L2.79329 11.7826Z" fill="#272727"/>
</svg>
