<svg width="26" height="28" viewBox="0 0 26 28" fill="none" xmlns="http://www.w3.org/2000/svg">
<path d="M10.9347 0.701526C7.32976 2.03764 5.69113 6.32329 7.45581 9.70139C9.27091 13.2055 13.7834 14.2391 16.8842 11.8694C20.5396 9.07114 20.0354 3.14687 15.9515 1.05446C14.7108 0.258322 12.2457 0.222542 10.9347 0.701526ZM15.3965 1.76033C17.2872 2.74351 18.4472 4.5334 18.4724 6.77706C18.4724 8.64258 17.5649 10.3568 16.0271 11.3904C15.1196 11.9703 14.6856 12.2581 12.9966 12.2581C11.3075 12.2581 10.9852 11.9703 10.0776 11.3904C6.52305 9.02072 6.9264 3.42417 10.7835 1.76033C12.044 1.20572 14.2621 1.18051 15.3965 1.76033Z" fill="black" stroke="black" stroke-width="0.5"/>
<path d="M10.6603 14.6975C7.28231 15.3277 4.21472 17.4497 2.3714 21.1715C1.34701 23.2398 1 26.3143 1 27C1.34321 27 5.26564 26.9998 13.0552 26.9998C20.8448 26.9998 24.9999 26.9999 24.9999 26.9999C24.9995 26.3143 25.0367 23.2529 23.971 21.1715C22.08 17.4783 18.8281 15.3277 15.2233 14.6723C14.3043 14.4974 13.6153 14.4152 12.945 14.418C12.2436 14.421 11.5627 14.517 10.6603 14.6975ZM17.0888 16.1092C20.7189 17.5462 23.6282 20.8287 23.971 24.9429L24.0848 25.9914H13.0552H1.91258L2.08905 24.8066C2.69406 20.6722 5.79993 17.0573 9.72756 15.8823C11.6687 15.2269 15.1225 15.3529 17.0888 16.1092Z" fill="black" stroke="black" stroke-width="0.5"/>
</svg>
