<svg width="46" height="45" viewBox="0 0 46 45" fill="none" xmlns="http://www.w3.org/2000/svg">
<path d="M0.25996 19.2538C1.91772 8.46449 9.93794 1.0092 20.9125 0.0552979C22.3758 -0.0743599 24.4317 0.0275154 26.1914 0.323875C32.5816 1.37965 37.8142 4.66739 41.1853 9.76106C43.6025 13.4007 44.862 17.4293 45.0102 21.9488C45.1028 24.8939 44.7323 27.5056 43.8247 30.2191C41.5928 36.9242 36.4806 41.8975 29.4699 44.1572C28.6086 44.4351 25.4955 45 25.2732 45H20.6929C20.628 45 18.1897 44.8611 17.4766 44.6851C15.3002 44.148 13.3275 43.3978 11.5494 42.4532C4.98318 38.9339 0.834156 32.5529 0.111781 24.8568C-0.0271374 23.4028 0.0469524 20.6245 0.25996 19.2538Z" fill="#3E5ABE"/>
<path d="M18.6404 37.7183H24.701C24.7098 37.7238 24.7196 37.7183 24.7305 37.7183H24.701C24.647 37.6847 24.6301 37.241 24.6301 32.6315V25.9455H29.0466L29.0854 25.7656C29.1009 25.6718 29.2791 24.5379 29.4728 23.2476C29.6665 21.9573 29.8447 20.7843 29.8679 20.6435L29.9144 20.3933H27.2723H24.6301V18.4931C24.6301 17.4452 24.6688 16.3817 24.7153 16.1315C24.8781 15.2165 25.3972 14.5127 26.141 14.1687C26.9537 13.8693 28.0753 13.7888 28.9149 13.8246H30.1314V11.4786C30.1314 10.1883 30.1159 9.13262 30.1081 9.13262V8.93159H24.7153C23.2257 8.93159 21.7237 9.82154 21.1589 10.2665C19.9037 11.2205 19.1056 12.808 18.8267 14.8646C18.7802 15.2009 18.7414 16.585 18.7414 17.9379V20.3933H16.3395H13.9375V23.1694V25.9455H16.3395H18.7414V32.6315C18.7957 37.7183 18.6404 37.7183 18.6404 37.7183Z" fill="white"/>
</svg>
