<svg width="32" height="27" viewBox="0 0 32 27" fill="none" xmlns="http://www.w3.org/2000/svg">
<path d="M0.204436 0.213032C-0.0929255 0.505951 -0.0658926 0.878757 0.285535 1.11842C0.542347 1.29151 1.09652 1.33145 3.59706 1.33145C6.36793 1.33145 6.62474 1.34477 6.86804 1.58443C7.01672 1.73089 7.2465 2.35667 7.42221 3.14223C7.58441 3.87453 7.9899 5.63205 8.32781 7.05671C8.65221 8.48136 9.31451 11.3839 9.78759 13.5143C10.2607 15.6313 10.8419 18.1477 11.0716 19.093C11.3014 20.0384 11.4771 20.8239 11.4501 20.8373C11.4231 20.8506 11.1663 20.997 10.8689 21.1435C9.76056 21.7027 9.17935 22.6347 9.17935 23.8996C9.17935 25.2177 9.86869 26.243 11.0987 26.7622C12.6531 27.428 14.5454 26.6424 15.2212 25.0713C15.451 24.5121 15.451 23.2738 15.2077 22.7013L15.0049 22.2353H19.3978H23.7906L23.5473 22.6747C23.2094 23.3004 23.2364 24.552 23.6014 25.2444C24.4935 26.9087 26.5209 27.4812 28.0888 26.5359C29.0215 25.9634 29.4945 25.2044 29.5621 24.1792C29.5892 23.7132 29.5486 23.114 29.4675 22.8611C29.2377 22.1687 28.4673 21.3698 27.7374 21.0769C27.1157 20.8106 26.8318 20.8106 20.398 20.8239C16.7215 20.8373 13.5046 20.8106 13.2478 20.7707L12.7747 20.7041L12.4098 19.0531C12.207 18.1477 12.0043 17.2024 11.9502 16.9627L11.8691 16.51H19.0599C26.0208 16.51 26.2641 16.4967 26.6831 16.2437C27.1427 15.9641 27.6969 14.8191 30.3055 8.85417C30.7921 7.74906 31.3733 6.45755 31.6031 5.96491C32.2114 4.64677 32.1303 4.04762 31.2922 3.72807C31.0489 3.64818 27.2103 3.59492 19.9249 3.59492H8.90902L8.82792 3.22212C8.34133 1.1051 8.11155 0.692354 7.21947 0.266289C6.70584 0.0266266 6.38145 -1.90735e-06 3.543 -1.90735e-06C0.880258 -1.90735e-06 0.38015 0.0266285 0.204436 0.213032ZM30.5353 4.99295C30.5353 5.05952 29.8865 6.53744 27.8996 10.9845C27.1832 12.5956 26.4669 14.1933 26.3182 14.5528L26.0343 15.1786H18.7895H11.5447L11.1122 13.2746C10.8689 12.2361 10.3688 10.0525 9.99033 8.41479C9.62539 6.7771 9.31451 5.32582 9.31451 5.17936C9.31451 4.92638 9.51726 4.92638 19.9249 4.92638C25.764 4.92638 30.5353 4.95301 30.5353 4.99295ZM13.018 22.2885C13.9642 22.6747 14.3967 23.7132 13.9642 24.592C13.4641 25.5905 12.2881 25.9767 11.3825 25.4308C10.166 24.6985 10.1255 23.1939 11.3285 22.4084C11.8556 22.0622 12.3692 22.0222 13.018 22.2885ZM27.2238 22.2885C28.5078 22.8211 28.5619 24.8449 27.3049 25.4973C26.3993 25.95 25.2909 25.5506 24.8043 24.592C24.2367 23.4336 25.1017 22.2353 26.5885 22.1154C26.6831 22.1021 26.967 22.182 27.2238 22.2885Z" fill="black"/>
</svg>
