<svg width="27" height="27" viewBox="0 0 27 27" fill="none" xmlns="http://www.w3.org/2000/svg">
<path d="M0 11.2357C0 17.4342 5.04177 22.4714 11.2334 22.4714C14.086 22.4714 16.6953 21.3987 18.68 19.6404L25.8391 26.8009C25.9717 26.9336 26.1431 27 26.32 27C26.4969 27 26.6683 26.9336 26.801 26.8009C27.0663 26.5355 27.0663 26.1098 26.801 25.8444L19.6364 18.6838C21.3944 16.6988 22.4668 14.0944 22.4668 11.2357C22.4668 5.03727 17.4251 0 11.2334 0C5.04177 0 0 5.03727 0 11.2357ZM21.1124 11.2357C21.1124 16.6822 16.6787 21.1167 11.2334 21.1167C5.78808 21.1167 1.35442 16.6822 1.35442 11.2357C1.35442 5.78927 5.78808 1.3547 11.2334 1.3547C16.6787 1.3547 21.1124 5.78374 21.1124 11.2357Z" fill="black"/>
</svg>
