<svg width="46" height="45" viewBox="0 0 46 45" fill="none" xmlns="http://www.w3.org/2000/svg">
<path d="M20.3843 0.0564444C13.339 0.787395 7.16555 4.61828 3.41393 10.5892C-1.90528 19.0435 -0.910127 30.2191 5.80933 37.5815C9.53453 41.659 14.1844 44.0984 19.7678 44.891C20.807 45.0407 24.268 45.0319 25.36 44.891C30.4591 44.1865 35.0209 41.9232 38.4907 38.3829C39.6356 37.2204 39.8734 36.9474 40.6307 35.9435C42.8852 32.9404 44.3559 29.2768 44.9284 25.2786C45.0781 24.2394 45.0781 20.7696 44.9284 19.7305C44.5497 17.062 43.854 14.7899 42.7531 12.5619C41.573 10.2017 40.3753 8.51961 38.4995 6.62619C35.0209 3.10354 30.6704 0.910687 25.6683 0.17093C24.5851 0.0124105 21.4587 -0.0580418 20.3843 0.0564444Z" fill="#3E5ABE"/>
<path d="M18.6764 9.02817C15.3024 9.09559 14.7513 9.1293 13.9978 9.33157C11.6023 9.98332 10.2415 11.3318 9.60044 13.7253C9.39801 14.4782 9.36427 15.04 9.29679 18.546C9.26305 20.7147 9.26305 24.2881 9.29679 26.4681C9.36427 29.9629 9.39801 30.5247 9.60044 31.2776C10.2415 33.6711 11.6023 35.0308 13.9978 35.6713C14.7513 35.8736 15.3137 35.9073 18.8226 35.9747C20.9931 36.0084 24.5695 36.0084 26.7514 35.9747C30.2715 35.9073 30.8113 35.8736 31.5873 35.6601C33.9154 35.042 35.3324 33.6374 35.9622 31.3001C36.1647 30.5135 36.1984 29.9966 36.2659 26.4569C36.2996 24.2881 36.2996 20.7147 36.2659 18.5347C36.1984 15.0288 36.1647 14.4782 35.9622 13.7253C35.3212 11.3318 33.9491 9.96084 31.5649 9.33157C30.6876 9.10683 30.4627 9.09559 24.1309 8.98322C23.2312 8.97198 20.7795 8.99445 18.6764 9.02817ZM32.3071 11.8374C32.7345 11.9948 33.2406 12.478 33.4205 12.9162C33.9716 14.186 32.9932 15.6468 31.6098 15.6468C30.5527 15.6468 29.6417 14.7478 29.6417 13.6916C29.6417 12.3319 31.0363 11.3542 32.3071 11.8374ZM25.5142 14.4894C26.8751 14.9614 27.6286 15.4445 28.697 16.4896C29.7317 17.5122 30.3727 18.5235 30.8451 19.8607C31.1375 20.6923 31.16 20.8833 31.16 22.5014C31.16 24.1196 31.1375 24.3106 30.8451 25.1422C30.3952 26.4344 29.7204 27.4907 28.7532 28.4683C27.7748 29.4347 26.7176 30.109 25.4243 30.5584C24.592 30.8506 24.4008 30.8731 22.7813 30.8731C21.1618 30.8731 20.9707 30.8506 20.1384 30.5584C18.8001 30.0865 17.7879 29.446 16.7645 28.4122C15.7185 27.3446 15.2462 26.5917 14.7513 25.2321C14.4139 24.2769 14.4027 24.1758 14.4027 22.5014C14.4139 20.917 14.4364 20.681 14.7176 19.8607C15.3024 18.119 16.5508 16.4784 18.0578 15.4783C19.6998 14.3883 20.8807 14.0624 23.0063 14.1073C24.3558 14.141 24.6258 14.186 25.5142 14.4894Z" fill="white"/>
<path d="M21.6138 18.299C18.9668 19.0035 17.3564 21.6606 18.0207 24.217C18.5038 26.0589 19.8122 27.3673 21.6641 27.8504C25.1264 28.7562 28.488 25.3946 27.5822 21.9323C26.8776 19.245 24.1904 17.6045 21.6138 18.299Z" fill="white"/>
</svg>
