<svg width="25" height="21" viewBox="0 0 25 21" fill="none" xmlns="http://www.w3.org/2000/svg">
<path d="M12.47 3.32841L11.8431 3.91199C12.0072 4.07682 12.2335 4.16995 12.47 4.16995C12.7065 4.16995 12.9328 4.07682 13.0969 3.91199L12.47 3.32841ZM6.67071 15.5815C6.2997 15.2862 5.75143 15.3377 5.4461 15.6965C5.14076 16.0553 5.19399 16.5857 5.565 16.8811L6.67071 15.5815ZM1.26671 12.2048C1.49726 12.6126 2.02591 12.7624 2.44746 12.5393C2.86903 12.3162 3.02385 11.8049 2.79329 11.3972L1.26671 12.2048ZM1.74 7.40871C1.74 4.99533 3.14983 2.97147 5.07426 2.12059C6.94384 1.29396 9.45593 1.51287 11.8431 3.91199L13.0969 2.74483C10.2643 -0.101824 6.97634 -0.570988 4.35088 0.589852C1.78026 1.72644 0 4.36563 0 7.40871H1.74ZM8.40701 19.0363C9.00119 19.4894 9.63907 19.9725 10.2855 20.3379C10.9317 20.7031 11.6691 21 12.47 21V19.3169C12.1109 19.3169 11.6883 19.1815 11.1634 18.8847C10.6387 18.5882 10.0944 18.1798 9.48422 17.7145L8.40701 19.0363ZM16.533 19.0363C18.1879 17.7743 20.3032 16.3285 21.9626 14.5211C23.6518 12.6812 24.94 10.3995 24.94 7.40871H23.2C23.2 9.87431 22.1569 11.7747 20.6616 13.4035C19.1364 15.0647 17.2139 16.3739 15.4558 17.7145L16.533 19.0363ZM24.94 7.40871C24.94 4.36563 23.1597 1.72644 20.5891 0.589852C17.9636 -0.570988 14.6757 -0.101824 11.8431 2.74483L13.0969 3.91199C15.484 1.51287 17.9961 1.29396 19.8657 2.12059C21.7901 2.97147 23.2 4.99533 23.2 7.40871H24.94ZM15.4558 17.7145C14.8456 18.1798 14.3013 18.5882 13.7766 18.8847C13.2517 19.1815 12.8291 19.3169 12.47 19.3169V21C13.2709 21 14.0083 20.7031 14.6545 20.3379C15.301 19.9725 15.9387 19.4894 16.533 19.0363L15.4558 17.7145ZM9.48422 17.7145C8.56096 17.0105 7.6227 16.3393 6.67071 15.5815L5.565 16.8811C6.52811 17.6478 7.54548 18.3793 8.40701 19.0363L9.48422 17.7145ZM2.79329 11.3972C2.14229 10.2458 1.74 8.94166 1.74 7.40871H0C0 9.24607 0.487142 10.826 1.26671 12.2048L2.79329 11.3972Z" fill="white"/>
</svg>
