<svg width="20" height="23" viewBox="0 0 20 23" fill="none" xmlns="http://www.w3.org/2000/svg">
<path d="M0.769223 9.28599L1.53559 9.21922C1.5001 8.80563 1.14761 8.49362 0.736065 8.51152C0.32451 8.52941 0 8.87086 0 9.28599H0.769223ZM18.4471 11.1704L17.7235 15.3872L19.2395 15.6515L19.9631 11.4346L18.4471 11.1704ZM11.2768 20.6718H6.50901V22.2222H11.2768V20.6718ZM5.57429 19.8062L4.74131 10.098L3.20858 10.2315L4.04156 19.9397L5.57429 19.8062ZM17.7235 15.3872C17.2037 18.4162 14.4935 20.6718 11.2768 20.6718V22.2222C15.2011 22.2222 18.5853 19.4636 19.2395 15.6515L17.7235 15.3872ZM11.2869 3.97948L10.6072 8.15991L12.1254 8.41059L12.8051 4.23017L11.2869 3.97948ZM5.06429 9.29778L6.53991 8.01638L5.53563 6.8419L4.06001 8.12333L5.06429 9.29778ZM9.22453 3.84709L9.71242 1.95163L8.22331 1.56234L7.73539 3.45779L9.22453 3.84709ZM10.4493 1.57975L10.5981 1.62788L11.0686 0.151798L10.9199 0.103664L10.4493 1.57975ZM8.48556 5.75296C8.80545 5.14933 9.05396 4.50996 9.22453 3.84709L7.73539 3.45779C7.59555 4.0011 7.39171 4.52602 7.12857 5.02247L8.48556 5.75296ZM10.5981 1.62788C10.9123 1.72963 11.1355 1.97425 11.2088 2.25926L12.698 1.86998C12.4873 1.05135 11.8655 0.409793 11.0686 0.151798L10.5981 1.62788ZM9.71242 1.95163C9.74842 1.81209 9.84842 1.68385 9.9997 1.61037L9.33181 0.21369C8.78617 0.478641 8.37633 0.967716 8.22331 1.56234L9.71242 1.95163ZM9.9997 1.61037C10.1379 1.54326 10.3005 1.53158 10.4493 1.57975L10.9199 0.103664C10.3971 -0.0655868 9.82678 -0.026672 9.33181 0.21369L9.9997 1.61037ZM12.2088 10.0612H17.5227V8.5108H12.2088V10.0612ZM2.53209 20.8332L1.53559 9.21922L0.00286148 9.35276L0.999365 20.9667L2.53209 20.8332ZM1.53845 20.9434V9.28599H0V20.9434H1.53845ZM0.999365 20.9667C0.985837 20.8091 1.10918 20.6718 1.26841 20.6718V22.2222C2.01299 22.2222 2.5961 21.5792 2.53209 20.8332L0.999365 20.9667ZM12.8051 4.23017C12.9328 3.4445 12.8964 2.64059 12.698 1.86998L11.2088 2.25926C11.3534 2.8209 11.38 3.40684 11.2869 3.97948L12.8051 4.23017ZM6.50901 20.6718C6.02296 20.6718 5.61637 20.2966 5.57429 19.8062L4.04156 19.9397C4.15229 21.2302 5.22323 22.2222 6.50901 22.2222V20.6718ZM6.53991 8.01638C7.23718 7.41085 7.98885 6.69009 8.48556 5.75296L7.12857 5.02247C6.77331 5.69268 6.20763 6.25832 5.53563 6.8419L6.53991 8.01638ZM19.9631 11.4346C20.2249 9.90852 19.0604 8.5108 17.5227 8.5108V10.0612C18.1038 10.0612 18.5467 10.5901 18.4471 11.1704L19.9631 11.4346ZM1.26841 20.6718C1.41837 20.6718 1.53845 20.7942 1.53845 20.9434H0C0 21.6489 0.567061 22.2222 1.26841 22.2222V20.6718ZM10.6072 8.15991C10.4454 9.15515 11.2067 10.0612 12.2088 10.0612V8.5108C12.1576 8.5108 12.1167 8.46409 12.1254 8.41059L10.6072 8.15991ZM4.74131 10.098C4.71524 9.79411 4.83559 9.49643 5.06429 9.29778L4.06001 8.12333C3.4566 8.64735 3.13996 9.43183 3.20858 10.2315L4.74131 10.098Z" fill="#3E5ABE"/>
</svg>
