<svg width="45" height="45" viewBox="0 0 45 45" fill="none" xmlns="http://www.w3.org/2000/svg">
<path d="M7.78174 5.46679C11.4343 2.31184 15.7536 0.518398 20.7959 0.0395241C21.5659 -0.0262032 23.5471 -0.00742722 24.5048 0.0770836C28.2138 0.415112 31.7443 1.65456 34.8335 3.69213C38.5613 6.15224 41.4721 9.61705 43.1716 13.6077C46.2233 20.7627 45.4346 28.8566 41.0683 35.2416C37.4251 40.5656 31.857 43.9741 25.303 44.8755C24.1574 45.0351 20.8241 45.0445 19.6691 44.8849C14.0447 44.1055 9.03057 41.4201 5.4437 37.2416C2.608 33.9458 0.870897 30.1336 0.176057 25.6923C-0.0586858 24.2087 -0.0586858 20.8284 0.176057 19.3448C1.0493 13.7579 3.64087 9.03489 7.78174 5.46679Z" fill="#3E5ABE"/>
<path d="M28.3109 9.29862C28.6558 11.2782 30.2684 12.8233 32.3272 13.1516L33.0879 13.2771V15.5078V17.7481L32.5605 17.7095C31.242 17.6226 29.954 17.2942 28.9093 16.8018C28.5848 16.6473 28.3008 16.5217 28.2704 16.5217C28.24 16.5217 28.2197 19.3028 28.2197 22.7019C28.2197 27.9744 28.1994 28.998 28.0574 29.6353C27.5807 31.837 26.2115 33.778 24.2744 35.014C20.8362 37.1867 16.1505 36.7618 13.2195 34.0097C11.333 32.2329 10.4608 30.0795 10.6028 27.5012C10.6738 26.1686 10.8462 25.5409 11.4852 24.2952C12.327 22.644 13.6353 21.379 15.3595 20.5195C16.394 20.0174 17.9153 19.6118 18.7976 19.6118H19.396V21.8328V24.0442L19.0208 24.1021C17.0025 24.3918 15.6434 25.6182 15.3595 27.3853C15.0755 29.1042 15.9376 30.7072 17.5502 31.4604C18.2905 31.8177 18.3615 31.8273 19.3859 31.8273C20.3798 31.8273 20.5117 31.808 21.1202 31.528C21.962 31.1514 22.6922 30.4561 23.0878 29.6546L23.4022 29.0269L23.4529 18.8393C23.4833 13.2385 23.5137 8.64197 23.534 8.62266C23.5442 8.613 24.5989 8.60334 25.8768 8.60334H28.1892L28.3109 9.29862Z" fill="white"/>
</svg>
